<svg width="190" height="30" viewBox="0 0 190 30" fill="none" xmlns="http://www.w3.org/2000/svg">
<path d="M42.9434 24.4302V3.90906H48.486V11.5312H56.5754V3.90906H62.1181V24.4302H56.5754V16.5149H48.486V24.4302H42.9434Z" fill="white"/>
<path d="M65.3997 5.0817C65.3997 4.37812 65.6693 3.7918 66.2086 3.32274C66.7479 2.83414 67.427 2.58984 68.2459 2.58984C69.0648 2.58984 69.7439 2.83414 70.2832 3.32274C70.8225 3.7918 71.0921 4.37812 71.0921 5.0817C71.0921 5.76574 70.8225 6.35206 70.2832 6.84066C69.7439 7.32926 69.0648 7.57356 68.2459 7.57356C67.427 7.57356 66.7479 7.32926 66.2086 6.84066C65.6693 6.35206 65.3997 5.76574 65.3997 5.0817ZM65.6993 24.4302V9.18594H70.7925V24.4302H65.6993Z" fill="white"/>
<path d="M75.3547 22.1143C74.0165 20.668 73.3474 18.8016 73.3474 16.5149C73.3474 14.2283 74.0165 12.3618 75.3547 10.9156C76.693 9.46932 78.3208 8.7462 80.2383 8.7462C81.6165 8.7462 82.8049 9.13708 83.8036 9.91883C84.263 10.2706 84.6225 10.6615 84.8821 11.0915H85.1818V9.18594H90.275V30.0003H75.4446V26.0426H85.1818V22.085H84.8821C84.6025 22.5149 84.243 22.8863 83.8036 23.199C82.8249 23.9221 81.6364 24.2837 80.2383 24.2837C78.3208 24.2837 76.693 23.5605 75.3547 22.1143ZM79.4893 13.9351C78.8901 14.5605 78.5905 15.4205 78.5905 16.5149C78.5905 17.6094 78.8901 18.4693 79.4893 19.0947C80.0885 19.7201 80.8874 20.0328 81.8861 20.0328C82.8848 20.0328 83.6837 19.7201 84.2829 19.0947C84.8821 18.4693 85.1818 17.6094 85.1818 16.5149C85.1818 15.4205 84.8821 14.5605 84.2829 13.9351C83.6837 13.3097 82.8848 12.997 81.8861 12.997C80.8874 12.997 80.0885 13.3097 79.4893 13.9351Z" fill="white"/>
<path d="M93.257 24.4302V3.90906H98.3503V11.2381H98.6499C98.9295 10.769 99.2891 10.3586 99.7285 10.0068C100.747 9.16639 101.936 8.7462 103.294 8.7462C105.131 8.7462 106.559 9.29343 107.578 10.3879C108.617 11.4628 109.136 13.0166 109.136 15.0491V24.4302H104.043V15.782C104.043 14.9025 103.803 14.2185 103.324 13.7299C102.844 13.2413 102.185 12.997 101.346 12.997C100.487 12.997 99.7684 13.3097 99.1892 13.9351C98.6299 14.541 98.3503 15.3521 98.3503 16.3683V24.4302H93.257Z" fill="white"/>
<path d="M120.379 30.0003V9.18594H125.473V11.2381H125.772C126.052 10.7885 126.431 10.3781 126.911 10.0068C128.009 9.16639 129.178 8.7462 130.416 8.7462C132.334 8.7462 133.962 9.48887 135.3 10.9742C136.638 12.44 137.307 14.3846 137.307 16.8081C137.307 19.2315 136.638 21.1859 135.3 22.6713C133.962 24.1371 132.334 24.87 130.416 24.87C129.158 24.87 127.989 24.4596 126.911 23.6387C126.431 23.2674 126.052 22.8472 125.772 22.3781H125.473V30.0003H120.379ZM126.372 13.9938C125.772 14.6582 125.473 15.5964 125.473 16.8081C125.473 18.0198 125.772 18.9579 126.372 19.6224C126.971 20.2869 127.77 20.6192 128.768 20.6192C129.767 20.6192 130.566 20.2869 131.165 19.6224C131.764 18.9579 132.064 18.0198 132.064 16.8081C132.064 15.5964 131.764 14.6582 131.165 13.9938C130.566 13.3293 129.767 12.997 128.768 12.997C127.77 12.997 126.971 13.3293 126.372 13.9938Z" fill="white"/>
<path d="M141.098 22.6713C139.76 21.1859 139.091 19.2315 139.091 16.8081C139.091 14.3846 139.76 12.44 141.098 10.9742C142.436 9.48887 144.064 8.7462 145.982 8.7462C147.22 8.7462 148.388 9.16639 149.487 10.0068C149.946 10.3781 150.326 10.7885 150.625 11.2381H150.925V9.18594H156.018V24.4302H150.925V22.3781H150.625C150.346 22.8472 149.966 23.2674 149.487 23.6387C148.408 24.4596 147.24 24.87 145.982 24.87C144.064 24.87 142.436 24.1371 141.098 22.6713ZM145.233 13.9938C144.633 14.6582 144.334 15.5964 144.334 16.8081C144.334 18.0198 144.633 18.9579 145.233 19.6224C145.832 20.2869 146.631 20.6192 147.629 20.6192C148.628 20.6192 149.427 20.2869 150.026 19.6224C150.625 18.9579 150.925 18.0198 150.925 16.8081C150.925 15.5964 150.625 14.6582 150.026 13.9938C149.427 13.3293 148.628 12.997 147.629 12.997C146.631 12.997 145.832 13.3293 145.233 13.9938Z" fill="white"/>
<path d="M158.102 19.4465H163.195C163.275 19.7397 163.444 20.0133 163.704 20.2674C164.243 20.7951 165.022 21.0589 166.041 21.0589C167.439 21.0589 168.138 20.7169 168.138 20.0328C168.138 19.7201 167.939 19.4758 167.539 19.2999C167.14 19.1045 166.54 18.9091 165.741 18.7136C165.082 18.5573 164.653 18.4596 164.453 18.4205C164.253 18.3814 163.834 18.2739 163.195 18.098C162.556 17.9025 162.096 17.7364 161.817 17.5996C161.557 17.4433 161.187 17.2283 160.708 16.9547C160.249 16.6615 159.909 16.3683 159.689 16.0752C159.49 15.7625 159.3 15.3814 159.12 14.9319C158.94 14.4628 158.851 13.9644 158.851 13.4368C158.851 12.1468 159.44 11.0426 160.618 10.124C161.797 9.20548 163.454 8.7462 165.592 8.7462C168.268 8.7462 170.385 9.60613 171.943 11.326C172.562 12.0687 172.992 12.9188 173.232 13.8765H168.288C168.168 13.5638 168.028 13.3195 167.869 13.1436C167.409 12.655 166.75 12.4107 165.891 12.4107C164.693 12.4107 164.094 12.7527 164.094 13.4368C164.094 13.769 164.293 14.0231 164.693 14.199C165.092 14.3749 165.701 14.541 166.52 14.6973C168.578 15.1664 169.966 15.5768 170.685 15.9286C172.483 16.7885 173.381 18.1078 173.381 19.8863C173.381 21.2934 172.742 22.4758 171.464 23.4335C170.206 24.3911 168.398 24.87 166.041 24.87C163.145 24.87 160.938 23.971 159.42 22.1729C158.741 21.3716 158.301 20.4628 158.102 19.4465Z" fill="white"/>
<path d="M174.72 19.4465H179.813C179.893 19.7397 180.063 20.0133 180.323 20.2674C180.862 20.7951 181.641 21.0589 182.66 21.0589C184.058 21.0589 184.757 20.7169 184.757 20.0328C184.757 19.7201 184.557 19.4758 184.158 19.2999C183.758 19.1045 183.159 18.9091 182.36 18.7136C181.701 18.5573 181.272 18.4596 181.072 18.4205C180.872 18.3814 180.453 18.2739 179.813 18.098C179.174 17.9025 178.715 17.7364 178.435 17.5996C178.176 17.4433 177.806 17.2283 177.327 16.9547C176.867 16.6615 176.528 16.3683 176.308 16.0752C176.108 15.7625 175.919 15.3814 175.739 14.9319C175.559 14.4628 175.469 13.9644 175.469 13.4368C175.469 12.1468 176.058 11.0426 177.237 10.124C178.415 9.20548 180.073 8.7462 182.21 8.7462C184.887 8.7462 187.004 9.60613 188.562 11.326C189.181 12.0687 189.611 12.9188 189.85 13.8765H184.907C184.787 13.5638 184.647 13.3195 184.487 13.1436C184.028 12.655 183.369 12.4107 182.51 12.4107C181.312 12.4107 180.712 12.7527 180.712 13.4368C180.712 13.769 180.912 14.0231 181.312 14.199C181.711 14.3749 182.32 14.541 183.139 14.6973C185.196 15.1664 186.585 15.5768 187.304 15.9286C189.101 16.7885 190 18.1078 190 19.8863C190 21.2934 189.361 22.4758 188.083 23.4335C186.824 24.3911 185.017 24.87 182.66 24.87C179.764 24.87 177.556 23.971 176.038 22.1729C175.359 21.3716 174.92 20.4628 174.72 19.4465Z" fill="white"/>
<path fill-rule="evenodd" clip-rule="evenodd" d="M5.99209 5.86319V23.4528H23.9684L5.99209 5.86319ZM0 0V29.316H29.9605V0H0Z" fill="#FF6E30"/>
</svg>
