<?xml version="1.0" encoding="utf-8"?><svg viewBox="0 0 190 30" xmlns="http://www.w3.org/2000/svg" xmlns:xlink="http://www.w3.org/1999/xlink"><style>:root>svg{display:none}:root>svg:target{display:block}</style><svg viewBox="0 0 25 25" id="icon-button-search" xmlns="http://www.w3.org/2000/svg"><path d="m24.911 22.814-5.057-4.457c1.487-1.98 2.292-4.403 2.292-6.95 0-3.05-1.156-5.909-3.245-8.065C16.812 1.186 14.03 0 11.073 0c-2.957 0-5.74 1.19-7.829 3.342C1.152 5.494 0 8.357 0 11.407c0 3.045 1.155 5.912 3.244 8.064 2.09 2.156 4.869 3.343 7.829 3.343 2.473 0 4.82-.83 6.743-2.358l5.058 4.453a.3.3 0 0 0 .214.091.294.294 0 0 0 .214-.091l1.61-1.654a.312.312 0 0 0 .088-.22.319.319 0 0 0-.089-.221ZM16.92 17.43c-1.565 1.608-3.639 2.494-5.846 2.494-2.207 0-4.282-.886-5.847-2.494a8.603 8.603 0 0 1-2.42-6.023c0-2.274.86-4.415 2.42-6.023 1.565-1.608 3.64-2.494 5.847-2.494 2.207 0 4.285.882 5.846 2.494a8.602 8.602 0 0 1 2.422 6.023c0 2.274-.86 4.414-2.422 6.023Z"/></svg><svg fill="none" viewBox="0 0 10 10" id="icon-close-button" xmlns="http://www.w3.org/2000/svg"><path fill="#fff" d="m1.207.5 8.485 8.485-.707.707L.5 1.207z"/><path fill="#fff" d="M.59 8.985 9.077.5l.707.707-8.485 8.486z"/></svg><svg fill="none" viewBox="0 0 14 14" id="icon-grey-calendar" xmlns="http://www.w3.org/2000/svg"><g clip-path="url(#ca)"><path d="M11.667 1.75h-.584V.583H9.917V1.75H4.083V.583H2.917V1.75h-.584a1.17 1.17 0 0 0-1.166 1.167v9.333a1.17 1.17 0 0 0 1.166 1.167h9.334a1.17 1.17 0 0 0 1.166-1.167V2.917a1.17 1.17 0 0 0-1.166-1.167Zm0 10.5H2.333V4.667h9.334v7.583Z" fill="#999"/></g><defs><clipPath id="ca"><path fill="#fff" d="M0 0h14v14H0z"/></clipPath></defs></svg><svg fill="none" viewBox="0 0 190 30" id="icon-header-logo" xmlns="http://www.w3.org/2000/svg"><path d="M42.943 24.43V3.91h5.543v7.621h8.09V3.91h5.542V24.43h-5.543v-7.915h-8.089v7.915h-5.543ZM65.4 5.082c0-.704.27-1.29.809-1.76.539-.488 1.218-.732 2.037-.732s1.498.244 2.037.733c.54.469.81 1.055.81 1.759 0 .684-.27 1.27-.81 1.759-.54.488-1.218.733-2.037.733s-1.498-.245-2.037-.733c-.54-.489-.81-1.075-.81-1.76Zm.3 19.348V9.186h5.093V24.43h-5.094ZM75.355 22.114c-1.339-1.446-2.008-3.312-2.008-5.6 0-2.286.67-4.152 2.008-5.598 1.338-1.447 2.966-2.17 4.883-2.17 1.379 0 2.567.391 3.566 1.173.459.352.819.742 1.078 1.172h.3V9.187h5.093V30h-14.83v-3.957h9.737v-3.958h-.3c-.28.43-.639.801-1.078 1.114-.98.723-2.168 1.085-3.566 1.085-1.917 0-3.545-.723-4.883-2.17Zm4.134-8.179c-.599.625-.898 1.486-.898 2.58s.3 1.954.898 2.58c.6.625 1.398.938 2.397.938.999 0 1.798-.313 2.397-.938.6-.626.899-1.486.899-2.58 0-1.095-.3-1.955-.9-2.58-.598-.625-1.397-.938-2.396-.938-.999 0-1.797.313-2.397.938ZM93.257 24.43V3.91h5.093v7.328h.3c.28-.469.64-.88 1.078-1.231 1.019-.84 2.208-1.26 3.566-1.26 1.837 0 3.265.546 4.284 1.64 1.039 1.076 1.558 2.63 1.558 4.662v9.381h-5.093v-8.648c0-.88-.24-1.563-.719-2.052-.48-.489-1.139-.733-1.978-.733-.859 0-1.578.313-2.157.938-.56.606-.839 1.417-.839 2.433v8.062h-5.093ZM120.379 30V9.186h5.094v2.052h.299c.28-.45.659-.86 1.139-1.231 1.098-.84 2.267-1.26 3.505-1.26 1.918 0 3.546.742 4.884 2.227 1.338 1.466 2.007 3.41 2.007 5.834 0 2.424-.669 4.378-2.007 5.863-1.338 1.466-2.966 2.199-4.884 2.199-1.258 0-2.427-.41-3.505-1.231a4.534 4.534 0 0 1-1.139-1.26h-.299V30h-5.094Zm5.993-16.006c-.6.664-.899 1.602-.899 2.814s.299 2.15.899 2.814c.599.665 1.398.997 2.396.997.999 0 1.798-.332 2.397-.997.599-.664.899-1.602.899-2.814s-.3-2.15-.899-2.814c-.599-.665-1.398-.997-2.397-.997-.998 0-1.797.332-2.396.997ZM141.098 22.671c-1.338-1.485-2.007-3.44-2.007-5.863 0-2.423.669-4.368 2.007-5.834 1.338-1.485 2.966-2.228 4.884-2.228 1.238 0 2.406.42 3.505 1.26a5.52 5.52 0 0 1 1.138 1.232h.3V9.186h5.093V24.43h-5.093v-2.052h-.3a4.53 4.53 0 0 1-1.138 1.26c-1.079.822-2.247 1.232-3.505 1.232-1.918 0-3.546-.733-4.884-2.199Zm4.135-8.677c-.6.664-.899 1.602-.899 2.814s.299 2.15.899 2.814c.599.665 1.398.997 2.396.997.999 0 1.798-.332 2.397-.997.599-.664.899-1.602.899-2.814s-.3-2.15-.899-2.814c-.599-.665-1.398-.997-2.397-.997-.998 0-1.797.332-2.396.997ZM158.102 19.447h5.093c.08.293.249.566.509.82.539.528 1.318.792 2.337.792 1.398 0 2.097-.342 2.097-1.026 0-.313-.199-.557-.599-.733-.399-.195-.999-.39-1.798-.586a43.407 43.407 0 0 0-1.288-.293c-.2-.04-.619-.147-1.258-.323-.639-.195-1.099-.362-1.378-.498-.26-.157-.63-.372-1.109-.645-.459-.293-.799-.587-1.019-.88a6.957 6.957 0 0 1-.569-1.143 4.137 4.137 0 0 1-.269-1.495c0-1.29.589-2.394 1.767-3.313 1.179-.919 2.836-1.378 4.974-1.378 2.676 0 4.793.86 6.351 2.58a6.336 6.336 0 0 1 1.289 2.55h-4.944c-.12-.312-.26-.556-.419-.732-.46-.489-1.119-.733-1.978-.733-1.198 0-1.797.342-1.797 1.026 0 .332.199.586.599.762.399.176 1.008.342 1.827.498 2.058.47 3.446.88 4.165 1.232 1.798.86 2.696 2.179 2.696 3.957 0 1.407-.639 2.59-1.917 3.547-1.258.958-3.066 1.437-5.423 1.437-2.896 0-5.103-.899-6.621-2.697a5.913 5.913 0 0 1-1.318-2.726ZM174.72 19.447h5.093c.08.293.25.566.51.82.539.528 1.318.792 2.337.792 1.398 0 2.097-.342 2.097-1.026 0-.313-.2-.557-.599-.733-.4-.195-.999-.39-1.798-.586a43.407 43.407 0 0 0-1.288-.293c-.2-.04-.619-.147-1.259-.323-.639-.195-1.098-.362-1.378-.498a57.723 57.723 0 0 0-1.108-.645c-.46-.293-.799-.587-1.019-.88a6.878 6.878 0 0 1-.569-1.143c-.18-.47-.27-.968-.27-1.495 0-1.29.589-2.394 1.768-3.313 1.178-.919 2.836-1.378 4.973-1.378 2.677 0 4.794.86 6.352 2.58a6.321 6.321 0 0 1 1.288 2.55h-4.943c-.12-.312-.26-.556-.42-.732-.459-.489-1.118-.733-1.977-.733-1.198 0-1.798.342-1.798 1.026 0 .332.2.586.6.762.399.176 1.008.342 1.827.498 2.057.47 3.446.88 4.165 1.232 1.797.86 2.696 2.179 2.696 3.957 0 1.407-.639 2.59-1.917 3.547-1.259.958-3.066 1.437-5.423 1.437-2.896 0-5.104-.899-6.622-2.697a5.923 5.923 0 0 1-1.318-2.726Z" fill="#fff"/><path fill-rule="evenodd" clip-rule="evenodd" d="M5.992 5.863v17.59h17.976L5.992 5.863ZM0 0v29.316h29.96V0H0Z" fill="#FF6E30"/></svg><svg viewBox="0 0 30 30" id="icon-ok" xmlns="http://www.w3.org/2000/svg"><g clip-path="url(#ea)"><path d="M12.853 9.99a2.24 2.24 0 1 0 4.478 0 2.24 2.24 0 0 0-4.478 0Z"/><path fill-rule="evenodd" clip-rule="evenodd" d="M15 30c8.284 0 15-6.716 15-15 0-8.284-6.716-15-15-15C6.716 0 0 6.716 0 15c0 8.284 6.716 15 15 15ZM9.675 9.99a5.417 5.417 0 1 1 10.834 0 5.417 5.417 0 0 1-10.834 0Zm10.866 8.204c-.069.055-1.368 1.082-3.537 1.524l3.274 3.244a1.473 1.473 0 1 1-2.082 2.085l-3.178-3.095-2.886 3.075c-.29.3-.675.45-1.06.45a1.473 1.473 0 0 1-1.06-2.495l3.107-3.247c-2.23-.431-3.583-1.485-3.653-1.541a1.473 1.473 0 0 1 1.843-2.298c.014.01 1.429 1.074 3.71 1.075 2.28-.001 3.666-1.064 3.68-1.075a1.473 1.473 0 0 1 1.842 2.298Z"/></g><defs><clipPath id="ea"><path fill="#fff" transform="matrix(-1 0 0 1 30 0)" d="M0 0h30v30H0z"/></clipPath></defs></svg><svg viewBox="0 0 20 20" id="icon-phone" xmlns="http://www.w3.org/2000/svg"><path d="M16.675 12.817a9.536 9.536 0 0 1-2.942-.467.814.814 0 0 0-.841.2l-1.309 1.642c-2.358-1.125-4.566-3.25-5.741-5.692l1.625-1.383a.85.85 0 0 0 .2-.85A9.294 9.294 0 0 1 7.2 3.325a.832.832 0 0 0-.825-.825H3.492c-.45 0-.992.2-.992.825C2.5 11.067 8.942 17.5 16.675 17.5c.592 0 .825-.525.825-.983v-2.875a.832.832 0 0 0-.825-.825Z"/></svg><svg viewBox="0 0 30 30" id="icon-vk" xmlns="http://www.w3.org/2000/svg"><path d="M15 0C6.716 0 0 6.716 0 15c0 8.284 6.716 15 15 15 8.284 0 15-6.716 15-15 0-8.284-6.716-15-15-15Zm7.609 16.622c.699.683 1.439 1.326 2.066 2.08.278.333.54.677.74 1.065.285.553.027 1.159-.467 1.192l-3.073-.001c-.794.066-1.426-.255-1.958-.797-.425-.433-.82-.894-1.229-1.342a2.871 2.871 0 0 0-.553-.492c-.42-.272-.783-.189-1.023.249-.245.445-.3.939-.324 1.434-.033.725-.252.914-.979.948-1.553.073-3.028-.163-4.398-.946-1.208-.69-2.144-1.666-2.959-2.77-1.587-2.152-2.803-4.514-3.895-6.944-.246-.547-.066-.84.538-.85a85.522 85.522 0 0 1 3.009-.002c.408.007.678.24.835.625.542 1.334 1.206 2.603 2.039 3.78.222.313.448.625.77.846.357.245.628.164.796-.233.107-.253.154-.523.177-.794.08-.927.09-1.854-.049-2.777-.086-.578-.41-.951-.987-1.06-.293-.056-.25-.165-.108-.332.248-.29.48-.47.944-.47h3.472c.547.107.67.353.744.904l.003 3.859c-.006.213.107.845.49.985.307.101.51-.145.693-.34.833-.883 1.426-1.926 1.957-3.005.235-.476.437-.969.634-1.462.146-.365.373-.545.785-.539l3.343.004c.099 0 .199.001.296.018.564.097.718.339.544.889-.275.863-.808 1.583-1.329 2.304-.558.772-1.154 1.517-1.707 2.293-.508.709-.468 1.066.163 1.681Z"/></svg><svg fill="none" viewBox="0 0 14 14" id="icon-white-calendar" xmlns="http://www.w3.org/2000/svg"><g clip-path="url(#ha)"><path d="M11.667 1.75h-.584V.583H9.917V1.75H4.083V.583H2.917V1.75h-.584a1.17 1.17 0 0 0-1.166 1.167v9.333a1.17 1.17 0 0 0 1.166 1.167h9.334a1.17 1.17 0 0 0 1.166-1.167V2.917a1.17 1.17 0 0 0-1.166-1.167Zm0 10.5H2.333V4.667h9.334v7.583Z" fill="#fff"/></g><defs><clipPath id="ha"><path fill="#fff" d="M0 0h14v14H0z"/></clipPath></defs></svg><svg fill="none" viewBox="0 0 12 12" id="icon-yandex-marker" xmlns="http://www.w3.org/2000/svg"><circle cx="6" cy="6" r="6" fill="#FF6E30"/></svg></svg>